Coordinates
version=1
nRows=17
nColumns=24
inDegrees=yes

Units are S.I. units (second, meters, Newtons, ...)
Angles are in degrees.

endheader
time	pelvis_tilt	pelvis_list	pelvis_rotation	pelvis_tx	pelvis_ty	pelvis_tz	hip_flexion_r	hip_adduction_r	hip_rotation_r	knee_angle_r	ankle_angle_r	subtalar_angle_r	mtp_angle_r	hip_flexion_l	hip_adduction_l	hip_rotation_l	knee_angle_l	ankle_angle_l	subtalar_angle_l	mtp_angle_l	lumbar_extension	lumbar_bending	lumbar_rotation
      3.72000000	     -5.12532741	      5.11726330	     -3.11346892	     -1.30197886	     -0.00164067	     -0.38810398	     30.54201735	     -6.79286753	     -2.93830744	    -46.15087589	     -0.66796004	     -7.83051557	     18.35456701	     -2.57596391	     11.07900717	     -2.22193237	     -0.51171875	      7.11514501	     -4.06566689	    -10.72774769	     -0.21064783	     -5.35237910	     -0.49578620
      3.72500000	     -5.10769269	      4.99810287	     -2.84211760	     -1.29603361	     -0.00201615	     -0.38847495	     30.69406306	     -6.64248221	     -3.23195611	    -44.58246455	     -0.46416035	     -7.48000980	     18.84058045	     -3.12277035	     10.99683675	     -2.06743130	     -0.32091897	      7.30284930	     -3.98313324	    -10.70347517	     -0.34085968	     -5.23609860	     -0.82840609
      3.73000000	     -5.03974614	      4.86225648	     -2.59087172	     -1.29005582	     -0.00238718	     -0.38877320	     30.75744034	     -6.45729000	     -3.48594288	    -42.94492109	     -0.39876537	     -7.19298743	     19.58829873	     -3.73756979	     10.88723531	     -1.88532196	     -0.11112945	      7.48026017	     -3.90792999	    -10.65086897	     -0.51919919	     -5.10794537	     -1.10372475
      3.73500000	     -5.11492434	      4.82007428	     -2.28802001	     -1.28407157	     -0.00303362	     -0.38912933	     31.00022941	     -6.40142369	     -3.79171198	    -41.37399038	     -0.14254609	     -6.72384363	     19.82176191	     -4.14921554	     10.87441336	     -1.77238659	      0.01241149	      7.71067570	     -3.76109984	    -10.57488021	     -0.54292548	     -5.07229592	     -1.42093973
      3.74000000	     -5.08988025	      4.73848238	     -1.99960952	     -1.27805008	     -0.00359917	     -0.38944194	     31.08755803	     -6.29584757	     -4.07677944	    -39.73809181	      0.04654229	     -6.28861190	     20.05128847	     -4.68099213	     10.81455904	     -1.65853114	      0.14792886	      7.94180524	     -3.59956301	    -10.47297587	     -0.67076189	     -4.99732212	     -1.76638321
      3.74500000	     -4.99476271	      4.65409284	     -1.71703655	     -1.27205104	     -0.00413713	     -0.38972037	     31.07113237	     -6.17767398	     -4.31983119	    -38.06192821	      0.17761736	     -5.90406952	     20.28175240	     -5.27582778	     10.74904839	     -1.58425646	      0.26219580	      8.18400284	     -3.42057446	    -10.32805308	     -0.87980715	     -4.92576749	     -2.15270386
      3.75000000	     -4.92585933	      4.56112603	     -1.45665083	     -1.26600044	     -0.00474310	     -0.38995105	     31.05963826	     -6.03751428	     -4.54749000	    -36.35888089	      0.28646186	     -5.50859741	     20.44393013	     -5.83100981	     10.66436993	     -1.52688965	      0.34868694	      8.45529009	     -3.20780327	    -10.15323787	     -1.05197721	     -4.83857415	     -2.47122800
      3.75500000	     -4.88993512	      4.45953002	     -1.20704505	     -1.25991385	     -0.00540034	     -0.39017455	     31.06305709	     -5.88840373	     -4.77866779	    -34.63730140	      0.35135491	     -5.08884495	     20.50055648	     -6.34201364	     10.56442949	     -1.48799671	      0.41884502	      8.73859646	     -2.97420061	     -9.98600201	     -1.17919211	     -4.73934748	     -2.72626730
      3.76000000	     -4.73536480	      4.34147738	     -0.97629709	     -1.25391469	     -0.00594809	     -0.39032669	     30.89997961	     -5.70447482	     -4.94795397	    -32.86436575	      0.38102621	     -4.71960068	     20.48711228	     -6.94349865	     10.44340116	     -1.53176199	      0.42663604	      9.06199125	     -2.68011625	     -9.75238560	     -1.45501141	     -4.62791876	     -3.06637430
      3.76500000	     -4.63947457	      4.20687151	     -0.74593774	     -1.24784297	     -0.00656751	     -0.39047808	     30.76723261	     -5.51360769	     -5.16370027	    -31.06635515	      0.41030079	     -4.32289977	     20.39298254	     -7.47284997	     10.29525260	     -1.55952491	      0.41054165	      9.41001479	     -2.37840152	     -9.53758909	     -1.65180923	     -4.49542788	     -3.34044519
      3.77000000	     -4.50529972	      4.04492935	     -0.54455115	     -1.24182270	     -0.00712413	     -0.39060301	     30.55977628	     -5.28952338	     -5.37384984	    -29.22764600	      0.38678696	     -3.88670797	     20.22254748	     -8.01435150	     10.11620045	     -1.64171592	      0.35112208	      9.77465293	     -2.05635153	     -9.32811590	     -1.89872807	     -4.32829965	     -3.59631202
      3.77500000	     -4.36690104	      3.86891060	     -0.36717677	     -1.23579246	     -0.00767518	     -0.39069968	     30.31483791	     -5.05059130	     -5.60783902	    -27.35947537	      0.35589528	     -3.39845164	     19.99775804	     -8.54235003	      9.91958015	     -1.76053953	      0.26286781	     10.14842731	     -1.72525064	     -9.13519124	     -2.14777761	     -4.14263940	     -3.82505018
      3.78000000	     -4.22959065	      3.68412429	     -0.19704832	     -1.22978661	     -0.00823198	     -0.39078059	     30.03905700	     -4.81349204	     -5.89761203	    -25.46374125	      0.30981564	     -2.82855365	     19.76190635	     -9.03950754	      9.70849663	     -1.88115037	      0.12154624	     10.54887945	     -1.40188149	     -8.97121676	     -2.39760222	     -3.94450642	     -4.02660865
      3.78500000	     -4.07631319	      3.49526967	     -0.04296050	     -1.22374068	     -0.00878451	     -0.39082898	     29.70471911	     -4.57601370	     -6.23490740	    -23.53306133	      0.25839715	     -2.16626070	     19.54148546	     -9.54465620	      9.48895497	     -2.02514222	     -0.03793583	     10.94865679	     -1.06367628	     -8.84058642	     -2.65809009	     -3.74053718	     -4.21585935
      3.79000000	     -3.91684259	      3.31034049	      0.10682487	     -1.21765348	     -0.00935556	     -0.39084560	     29.32375867	     -4.35090441	     -6.64416030	    -21.57387870	      0.19193310	     -1.39314720	     19.38020310	    -10.04254486	      9.26732757	     -2.17275353	     -0.22806519	     11.35716690	     -0.72221541	     -8.74321859	     -2.91952762	     -3.53972208	     -4.39104606
      3.79500000	     -3.73405575	      3.13761433	      0.25806876	     -1.21148328	     -0.00994228	     -0.39082497	     28.87169453	     -4.14519796	     -7.12294155	    -19.58592042	      0.11423257	     -0.49935074	     19.31934800	    -10.56433389	      9.04991140	     -2.32502369	     -0.43087127	     11.76291823	     -0.35371083	     -8.68426146	     -3.19327698	     -3.35456447	     -4.57314728
      3.80000000	     -3.55712799	      2.97491930	      0.41818736	     -1.20525840	     -0.01058264	     -0.39078507	     28.39310239	     -3.96044594	     -7.73210476	    -17.58886692	     -0.01393219	      0.52536418	     19.40115070	    -11.05966293	      8.83541902	     -2.45465414	     -0.68217560	     12.18662856	     -0.00934571	     -8.65210196	     -3.45356790	     -3.17553470	     -4.73126659
